<svg viewBox="0 0 100 100" xmlns="http://www.w3.org/2000/svg">
<ellipse cx="50" cy="82" rx="22" ry="6" fill="#3A2E2A" opacity="0.15"/>
<path d="M 50 88 Q 28 88 26 65 Q 24 42 50 40 Q 76 42 74 65 Q 72 88 50 88 Z" fill="#A8D8C8" stroke="#2A4A40" stroke-width="2"/>
<path d="M 32 50 L 28 36 L 38 44 Z" fill="#A8D8C8" stroke="#2A4A40" stroke-width="2" stroke-linejoin="round"/>
<path d="M 68 50 L 72 36 L 62 44 Z" fill="#A8D8C8" stroke="#2A4A40" stroke-width="2" stroke-linejoin="round"/>
<circle cx="42" cy="60" r="5" fill="#FFFFFF" stroke="#2A4A40" stroke-width="1.5"/>
<circle cx="58" cy="60" r="5" fill="#FFFFFF" stroke="#2A4A40" stroke-width="1.5"/>
<circle cx="42" cy="61" r="2.5" fill="#2A4A40"/>
<circle cx="58" cy="61" r="2.5" fill="#2A4A40"/>
<circle cx="43" cy="60" r="0.8" fill="#FFFFFF"/>
<circle cx="59" cy="60" r="0.8" fill="#FFFFFF"/>
<path d="M 46 72 Q 50 76 54 72" fill="none" stroke="#2A4A40" stroke-width="1.5" stroke-linecap="round"/>
<ellipse cx="38" cy="68" rx="3" ry="2" fill="#F4B6A8" opacity="0.7"/>
<ellipse cx="62" cy="68" rx="3" ry="2" fill="#F4B6A8" opacity="0.7"/>
</svg>