<svg viewBox="0 0 100 100" xmlns="http://www.w3.org/2000/svg">
<ellipse cx="50" cy="88" rx="24" ry="5" fill="#3A2E2A" opacity="0.15"/>
<ellipse cx="50" cy="62" rx="26" ry="28" fill="#A8D8C8" stroke="#2A4A40" stroke-width="2"/>
<path d="M 28 46 L 22 28 L 38 38 Z" fill="#A8D8C8" stroke="#2A4A40" stroke-width="2" stroke-linejoin="round"/>
<path d="M 72 46 L 78 28 L 62 38 Z" fill="#A8D8C8" stroke="#2A4A40" stroke-width="2" stroke-linejoin="round"/>
<path d="M 28 46 L 32 38" fill="none" stroke="#7BB8A4" stroke-width="1.5" stroke-linecap="round"/>
<path d="M 72 46 L 68 38" fill="none" stroke="#7BB8A4" stroke-width="1.5" stroke-linecap="round"/>
<circle cx="40" cy="58" r="6" fill="#FFFFFF" stroke="#2A4A40" stroke-width="1.5"/>
<circle cx="60" cy="58" r="6" fill="#FFFFFF" stroke="#2A4A40" stroke-width="1.5"/>
<circle cx="41" cy="59" r="3" fill="#2A4A40"/>
<circle cx="61" cy="59" r="3" fill="#2A4A40"/>
<circle cx="42" cy="58" r="1" fill="#FFFFFF"/>
<circle cx="62" cy="58" r="1" fill="#FFFFFF"/>
<path d="M 47 70 Q 50 73 53 70" fill="none" stroke="#2A4A40" stroke-width="1.5" stroke-linecap="round"/>
<path d="M 50 70 L 50 72" stroke="#2A4A40" stroke-width="1.2" stroke-linecap="round"/>
<ellipse cx="35" cy="68" rx="3.5" ry="2.5" fill="#F4B6A8" opacity="0.7"/>
<ellipse cx="65" cy="68" rx="3.5" ry="2.5" fill="#F4B6A8" opacity="0.7"/>
<path d="M 32 84 Q 30 90 34 90" fill="#A8D8C8" stroke="#2A4A40" stroke-width="1.5" stroke-linecap="round" stroke-linejoin="round"/>
<path d="M 68 84 Q 70 90 66 90" fill="#A8D8C8" stroke="#2A4A40" stroke-width="1.5" stroke-linecap="round" stroke-linejoin="round"/>
</svg>